<svg width="73" height="72" viewBox="0 0 73 72" fill="none" xmlns="http://www.w3.org/2000/svg">
<g id="icon/image/photo_24px">
<path id="icon/image/photo_24px_2" fill-rule="evenodd" clip-rule="evenodd" d="M63.5 15V57C63.5 60.3 60.8 63 57.5 63H15.5C12.2 63 9.5 60.3 9.5 57V15C9.5 11.7 12.2 9 15.5 9H57.5C60.8 9 63.5 11.7 63.5 15ZM33.5 49.53L27.2 41.94C26.57 41.19 25.43 41.22 24.86 42L17.39 51.6C16.61 52.59 17.3 54.03 18.56 54.03H54.53C55.76 54.03 56.48 52.62 55.73 51.63L45.2 37.59C44.6 36.78 43.4 36.78 42.8 37.56L33.5 49.53Z" fill="#94A3B1"/>
</g>
</svg>
